<?xml version="1.0" encoding="UTF-8"?>
<!DOCTYPE svg PUBLIC "-//W3C//DTD SVG 1.1//EN" "http://www.w3.org/Graphics/SVG/1.1/DTD/svg11.dtd">
<!-- Creator: CorelDRAW -->
<svg xmlns="http://www.w3.org/2000/svg" xml:space="preserve" width="185.046mm" height="47.9995mm" version="1.1" shape-rendering="geometricPrecision" text-rendering="geometricPrecision" image-rendering="optimizeQuality" fill-rule="evenodd" clip-rule="evenodd"
viewBox="0 0 18335 4756"
 xmlns:xlink="http://www.w3.org/1999/xlink"
 xmlns:xodm="http://www.corel.com/coreldraw/odm/2003">
 <g id="Layer_x0020_1">
  <metadata id="CorelCorpID_0Corel-Layer"/>
  <g id="_105553288598112">
   <path fill="#042AEC" d="M1062 0l5701 0c584,0 1062,478 1062,1062l0 2632c0,584 -478,1062 -1062,1062l-5701 0c-584,0 -1062,-478 -1062,-1062l0 -2632c0,-584 478,-1062 1062,-1062z"/>
   <path fill="#042AEC" d="M10879 2922l-1094 0c-33,0 -61,-27 -61,-61l0 -261c0,-33 27,-61 61,-61l1515 0c18,0 34,7 46,21 12,14 17,31 14,49l-30 180c-66,370 -248,674 -540,910 -290,233 -620,356 -992,356 -210,0 -413,-40 -606,-123 -186,-80 -353,-191 -496,-334 -143,-143 -254,-310 -334,-496 -83,-193 -123,-398 -123,-608 0,-211 40,-415 123,-608 80,-186 191,-353 334,-496 143,-143 310,-254 496,-334 183,-79 376,-123 576,-123 353,0 675,98 959,308 278,206 467,478 568,809 6,19 3,38 -9,54 -12,16 -29,25 -49,25l-317 0c-25,0 -47,-15 -57,-39 -87,-221 -226,-401 -421,-537 -194,-134 -408,-200 -644,-200 -315,0 -582,111 -805,333 -223,223 -333,490 -333,805 0,315 111,582 332,806 222,225 490,337 806,337 251,0 478,-72 683,-217 182,-129 314,-294 398,-496zm1296 -735c99,-128 235,-208 419,-208 74,0 145,14 212,43 23,10 37,31 37,56l0 390c0,25 -14,46 -36,55 -22,10 -47,6 -65,-11 -51,-46 -110,-78 -180,-78 -60,0 -115,15 -163,53 -51,40 -92,89 -124,146 -69,119 -99,250 -99,387l0 942c0,33 -27,61 -61,61l-300 0c-33,0 -61,-27 -61,-61l0 -1884c0,-33 27,-61 61,-61l300 0c33,0 61,27 61,61l0 109zm2409 1614c-177,174 -394,265 -650,265 -281,0 -516,-110 -702,-320 -183,-206 -274,-449 -274,-725 0,-276 91,-519 274,-725 187,-210 421,-320 702,-320 256,0 473,91 650,265l0 -161c0,-33 27,-61 61,-61l300 0c33,0 61,27 61,61l0 1884c0,33 -27,61 -61,61l-300 0c-33,0 -61,-27 -61,-61l0 -161zm2458 -1534c50,-69 111,-131 181,-182 113,-82 242,-119 380,-119 116,0 241,15 345,69 86,45 160,105 219,182 125,161 169,359 169,559l0 1177c0,33 -27,61 -61,61l-300 0c-33,0 -61,-27 -61,-61l0 -1177c0,-138 -32,-279 -156,-358 -42,-27 -116,-31 -164,-31 -78,0 -149,23 -215,67 -69,46 -124,105 -165,177 -15,27 -29,55 -41,83 1,21 2,41 2,62l0 1177c0,33 -27,61 -61,61l-300 0c-33,0 -61,-27 -61,-61l0 -1177c0,-138 -32,-279 -156,-358 -42,-27 -116,-31 -164,-31 -78,0 -149,23 -215,67 -69,46 -124,105 -165,177 -63,110 -94,236 -108,362l0 961c0,33 -27,61 -61,61l-300 0c-33,0 -61,-27 -61,-61l0 -1884c0,-33 27,-61 61,-61l300 0c33,0 61,27 61,61l0 117c35,-37 73,-72 116,-102 113,-82 242,-119 380,-119 116,0 241,15 345,69 86,45 160,105 219,182 12,16 24,33 35,50zm-2458 753c0,-169 -59,-314 -174,-438 -116,-125 -258,-186 -429,-186 -171,0 -312,61 -429,186 -115,124 -174,269 -174,438 0,169 59,314 174,438 116,125 258,186 429,186 171,0 312,-61 429,-186 115,-124 174,-269 174,-438z"/>
   <path fill="white" d="M2368 3821c-176,166 -390,253 -641,253 -284,0 -521,-111 -709,-323 -185,-208 -277,-453 -277,-731 0,-278 92,-523 277,-731 188,-212 425,-323 709,-323 251,0 465,87 641,253l0 -1537 438 0 0 3349 -438 0 0 -210zm1284 -616c35,109 98,200 191,275 115,93 245,143 393,143 98,0 191,-23 279,-67 89,-45 163,-107 222,-187l21 -28 484 0 -43 98c-84,190 -213,343 -387,456 -160,104 -338,167 -530,167 -154,0 -313,-21 -456,-83 -125,-54 -237,-129 -334,-224 -207,-204 -310,-453 -310,-743 0,-290 104,-540 309,-745 205,-205 455,-309 745,-309 284,0 530,102 735,297 206,196 319,437 319,722l0 228 -1638 0zm2430 826l-438 0 0 -3349 438 0 0 3349zm926 -2653c50,50 76,113 76,184 0,71 -26,134 -76,184 -50,50 -113,76 -184,76 -71,0 -134,-26 -184,-76 -50,-50 -76,-113 -76,-184 0,-71 26,-134 76,-184 50,-50 113,-76 184,-76 71,0 134,26 184,76zm37 2653l-438 0 0 -2022 438 0 0 2022zm-4677 -1011c0,-167 -58,-310 -172,-432 -115,-123 -254,-183 -422,-183 -168,0 -308,60 -422,183 -114,122 -172,265 -172,432 0,167 58,310 172,432 115,123 254,183 422,183 168,0 308,-60 422,-183 114,-122 172,-265 172,-432zm2444 -211c-38,-108 -103,-199 -195,-275 -111,-92 -237,-138 -382,-138 -230,0 -397,108 -519,300 -23,36 -42,74 -56,114l1152 0z"/>
  </g>
 </g>
</svg>
